<svg xmlns="http://www.w3.org/2000/svg" width="617.13" height="301.72" viewBox="0 0 617.13 301.72">
  <g id="logo-color" transform="translate(1986 2916)">
    <g id="Grupo_654" data-name="Grupo 654" transform="translate(-1986 -1722)">
      <g id="Grupo_652" data-name="Grupo 652">
        <g id="Grupo_651" data-name="Grupo 651">
          <path id="Trazado_1959" data-name="Trazado 1959" d="M0-1113.6c0-43.28,27.85-68.65,61.02-68.65,16.68,0,29.98,7.98,38.49,16.85l-13.84,16.67c-6.56-6.39-14.19-11-24.13-11-19.86,0-34.77,17.03-34.77,45.23,0,28.56,13.48,45.76,34.24,45.76,11.18,0,20.05-5.32,27.14-12.95l13.84,16.32c-10.82,12.59-24.83,19.33-41.86,19.33C26.96-1046.02,0-1069.79,0-1113.6Z" fill="#1592af"/>
          <path id="Trazado_1960" data-name="Trazado 1960" d="M120.98-1190.06h25.9v35.66l-1.07,18.62c7.98-7.45,17.74-14.55,31.22-14.55,21.47,0,30.69,14.9,30.69,39.91v61.91H181.64v-58.72c0-15.25-4.26-20.75-14.01-20.75-8.16,0-13.3,3.9-20.75,11.18v68.29h-25.9Z" fill="#1592af"/>
          <path id="Trazado_1961" data-name="Trazado 1961" d="M232.03-1178c0-8.52,6.56-14.19,15.61-14.19,8.87,0,15.43,5.67,15.43,14.19,0,8.16-6.56,14.19-15.43,14.19C238.59-1163.81,232.03-1169.84,232.03-1178Zm2.48,30.16h25.9v99.34h-25.9v-99.34Z" fill="#1592af"/>
          <path id="Trazado_1962" data-name="Trazado 1962" d="M338.1-1098c0-32.28,22.53-52.33,46.3-52.33,27.32,0,41.51,20.05,41.51,47.54a48.521,48.521,0,0,1-1.24,11.89h-61.2c2.13,16.32,12.77,24.83,27.49,24.83,8.16,0,15.25-2.49,22.35-6.92l8.87,15.96a62.679,62.679,0,0,1-34.77,11C359.75-1046.02,338.1-1065.36,338.1-1098Zm65.46-10.11c0-13.48-6.03-22-18.8-22-10.47,0-19.69,7.45-21.64,22Z" fill="#1592af"/>
          <path id="Trazado_1963" data-name="Trazado 1963" d="M119.24-1004.21H82.34v-21.82h100.4v21.82H145.49v109.45H119.24v-109.45Z" fill="#1592af"/>
          <path id="Trazado_1964" data-name="Trazado 1964" d="M180.98-944.26c0-32.28,22.53-52.33,46.3-52.33,27.32,0,41.51,20.05,41.51,47.54a48.521,48.521,0,0,1-1.24,11.89h-61.2c2.13,16.32,12.77,24.83,27.49,24.83,8.16,0,15.25-2.49,22.35-6.92l8.87,15.96a62.679,62.679,0,0,1-34.77,11C202.62-892.28,180.98-911.62,180.98-944.26Zm65.45-10.11c0-13.48-6.03-22-18.8-22-10.47,0-19.69,7.45-21.64,22Z" fill="#1592af"/>
          <path id="Trazado_1965" data-name="Trazado 1965" d="M339.92-944.26c0-33.17,23.77-52.33,50.73-52.33,12.24,0,21.64,4.79,28.91,11l-12.42,16.85c-4.97-4.26-9.58-6.56-15.26-6.56-15.08,0-25.37,12.24-25.37,31.04,0,18.63,10.29,30.69,24.66,30.69,7.09,0,13.84-3.37,19.34-7.98l10.29,17.21a49.253,49.253,0,0,1-32.46,12.06C360.85-892.28,339.92-911.44,339.92-944.26Z" fill="#1592af"/>
          <path id="Trazado_1966" data-name="Trazado 1966" d="M428.08-944.26c0-33.17,22.89-52.33,47.72-52.33s47.72,19.16,47.72,52.33c0,32.82-22.88,51.97-47.72,51.97S428.08-911.44,428.08-944.26Zm68.83,0c0-18.8-7.63-31.04-21.11-31.04s-21.11,12.24-21.11,31.04c0,18.63,7.63,30.69,21.11,30.69S496.91-925.63,496.91-944.26Z" fill="#1592af"/>
          <path id="Trazado_1967" data-name="Trazado 1967" d="M535.05-906.3l11.88-16.32c8.87,6.92,17.39,10.82,26.61,10.82,9.93,0,14.37-4.26,14.37-10.47,0-7.45-10.29-10.82-20.75-14.9-12.59-4.79-27.14-12.42-27.14-28.91,0-17.92,14.55-30.51,36.9-30.51,14.55,0,25.55,6.03,33.88,12.24l-11.71,15.79c-7.09-4.97-14.01-8.52-21.46-8.52-8.87,0-13.13,3.9-13.13,9.58,0,7.27,9.76,9.94,20.22,13.84,13.13,4.97,27.67,11.53,27.67,29.98,0,17.38-13.66,31.39-39.56,31.39C559.53-892.28,544.8-898.13,535.05-906.3Z" fill="#1592af"/>
          <path id="Trazado_1968" data-name="Trazado 1968" d="M290.25-922.61V-1194h25.9v272.63c0,5.85,2.84,7.8,5.32,7.8a14.951,14.951,0,0,0,3.55-.35l3.2,19.33a35.5,35.5,0,0,1-13.48,2.31C296.64-892.28,290.25-904.17,290.25-922.61Z" fill="#1592af"/>
        </g>
      </g>
      <g id="Grupo_653" data-name="Grupo 653">
        <path id="Trazado_1969" data-name="Trazado 1969" d="M465.88-1181.14a13.794,13.794,0,0,0-13.75,13.75,13.794,13.794,0,0,0,13.75,13.75c68.2,0,123.75,55.55,123.75,123.75a13.794,13.794,0,0,0,13.75,13.75,13.794,13.794,0,0,0,13.75-13.75A151.337,151.337,0,0,0,465.88-1181.14Z" fill="#1592af"/>
        <path id="Trazado_1970" data-name="Trazado 1970" d="M465.88-1126.14a13.794,13.794,0,0,0-13.75,13.75,13.794,13.794,0,0,0,13.75,13.75,68.775,68.775,0,0,1,68.75,68.75,13.794,13.794,0,0,0,13.75,13.75,13.794,13.794,0,0,0,13.75-13.75A96.349,96.349,0,0,0,465.88-1126.14Z" fill="#1592af"/>
        <path id="Trazado_1971" data-name="Trazado 1971" d="M465.88-1043.64a13.794,13.794,0,0,1,13.75,13.75,13.794,13.794,0,0,0,13.75,13.75,13.794,13.794,0,0,0,13.75-13.75,41.368,41.368,0,0,0-41.25-41.25,13.794,13.794,0,0,0-13.75,13.75A13.794,13.794,0,0,0,465.88-1043.64Z" fill="#1592af"/>
      </g>
    </g>
  </g>
</svg>
